<svg xmlns="http://www.w3.org/2000/svg"  viewBox="0 0 100 100" width="500px" height="500px"><circle cx="13.063" cy="28.958" r="2" fill="#ee3e54"/><circle cx="77.063" cy="12.958" r="1" fill="#f1bc19"/><circle cx="50.063" cy="49.958" r="37" fill="#fce0a2"/><circle cx="83.063" cy="14.958" r="4" fill="#f1bc19"/><circle cx="87.063" cy="23.958" r="2" fill="#ee3e54"/><circle cx="81.063" cy="75.958" r="2" fill="#fbcd59"/><circle cx="15.063" cy="62.958" r="4" fill="#fbcd59"/><circle cx="25.063" cy="86.958" r="2" fill="#ee3e54"/><circle cx="18.563" cy="48.458" r="2.5" fill="#fff"/><circle cx="25.063" cy="69.958" r="1" fill="#f1bc19"/><circle cx="80.063" cy="33.958" r="1" fill="#fff"/><g><path fill="#77cbd2" d="M50,25.75c-13.393,0-24.25,10.857-24.25,24.25c0,12.03,8.761,22.008,20.25,23.916V69 c0,0,0.105-2.386-4.602-5.524C36.954,60.633,34,55.667,34,50c0-8.836,7.163-16,16-16s16,7.164,16,16 c0,0,0.938,15.032-18.128,24.151c0.702,0.061,1.411,0.099,2.128,0.099c13.393,0,24.25-10.857,24.25-24.25S63.393,25.75,50,25.75z"/><path fill="#472b29" d="M50,74.95c-0.695,0-1.412-0.033-2.189-0.102c-0.314-0.027-0.571-0.262-0.628-0.572 c-0.056-0.311,0.102-0.62,0.387-0.757c18.381-8.791,17.741-23.331,17.732-23.478C65.3,41.563,58.437,34.7,50,34.7 S34.7,41.563,34.7,50c0,5.234,2.645,10.052,7.075,12.887c4.906,3.27,4.937,5.859,4.924,6.145l0.001,4.885 c0,0.206-0.091,0.401-0.248,0.534c-0.157,0.133-0.365,0.19-0.567,0.156C33.813,72.602,25.05,62.253,25.05,50 c0-13.758,11.193-24.95,24.95-24.95S74.95,36.242,74.95,50S63.757,74.95,50,74.95z M50,33.3c9.208,0,16.7,7.492,16.7,16.7 c0.008,0.106,0.68,14.247-16.117,23.543C63.3,73.232,73.55,62.791,73.55,50c0-12.985-10.564-23.55-23.55-23.55 S26.45,37.015,26.45,50c0,11.288,7.878,20.863,18.85,23.076V69c0-0.033-0.069-2.128-4.291-4.941C36.186,60.973,33.3,55.714,33.3,50 C33.3,40.792,40.792,33.3,50,33.3z"/></g><g><path fill="#472b29" d="M69.663,44.679c-0.214,0-0.412-0.138-0.478-0.354c-0.089-0.291-0.185-0.578-0.288-0.863 c-0.396-1.107-0.897-2.188-1.488-3.209c-0.139-0.238-0.057-0.544,0.182-0.683c0.239-0.142,0.544-0.058,0.683,0.183 c0.622,1.073,1.148,2.208,1.564,3.371c0.107,0.299,0.208,0.602,0.302,0.908c0.081,0.264-0.067,0.543-0.331,0.624 C69.761,44.672,69.711,44.679,69.663,44.679z"/></g><g><path fill="#472b29" d="M31.601,59.865c-0.182,0-0.357-0.1-0.446-0.273c-1.514-2.97-2.281-6.176-2.281-9.529 C28.874,38.448,38.351,29,50,29c6.045,0,11.813,2.591,15.824,7.107c0.303,0.341,0.596,0.692,0.876,1.054 c0.169,0.218,0.13,0.532-0.088,0.701c-0.219,0.171-0.533,0.13-0.702-0.088c-0.267-0.344-0.545-0.678-0.834-1.003 C61.255,32.468,55.76,30,50,30c-11.098,0-20.126,9-20.126,20.063c0,3.194,0.731,6.247,2.172,9.076 c0.125,0.245,0.028,0.547-0.218,0.672C31.755,59.848,31.677,59.865,31.601,59.865z"/></g><g><path fill="#472b29" d="M42.452,69.705c-0.061,0-0.123-0.011-0.183-0.034c-3.474-1.363-6.538-3.635-8.86-6.567 c-0.171-0.217-0.135-0.531,0.082-0.702c0.216-0.174,0.532-0.135,0.703,0.081c2.213,2.795,5.132,4.958,8.441,6.257 c0.257,0.102,0.384,0.392,0.283,0.648C42.84,69.585,42.652,69.705,42.452,69.705z"/></g><g><path fill="#472b29" d="M62.25,67.563c-0.143,0-0.285-0.061-0.384-0.179c-0.177-0.212-0.149-0.527,0.063-0.705 c5.362-4.49,8.197-10.236,8.197-16.616c0-1.005-0.076-2.018-0.225-3.01c-0.041-0.272,0.147-0.527,0.42-0.568 c0.275-0.047,0.527,0.146,0.569,0.42c0.156,1.041,0.236,2.104,0.236,3.158c0,6.685-2.958,12.696-8.555,17.384 C62.478,67.524,62.363,67.563,62.25,67.563z"/></g></svg>